<svg id="Layer_1" data-name="Layer 1" xmlns="http://www.w3.org/2000/svg" viewBox="0 0 509 294.78">
  <path d="M509,138.46l-20.01,100.99-12.48-28.99c-113.6,122.53-261.95,113.47-340.5-40,.7-.69,26.54,26.1,37.53,34.96,39.47,31.85,114.43,53.66,164.1,41.16,34.03-8.57,77.31-55.16,82.37-59.12l-30.25-9.84c-22.93,15.71-49.51,25.59-77.2,28.86-20.54-13.48-71.25-57.02-71.55-60.03h71l-175.99-68c8.81,54.68,36.31,105.32,79.99,139.5-42.31-10.14-67.25-58.15-105.99-77.52-.24-1.83,19.39,8.92,19.99,7.52-19.33-26.36-32.93-56.66-41.22-88.27L0,24.95l448.52,104.5L243.5,35.46h-104.5C182.32,20.48,231.07,12.54,276.12,0l232.88,138.46Z" fill="#ffffff"/>
</svg>