<?xml version="1.0" encoding="UTF-8"?>
<svg id="Layer_1" data-name="Layer 1" xmlns="http://www.w3.org/2000/svg" viewBox="0 0 451.78 262.45">
  <defs>
    <style>
      .cls-1 {
        fill: #fff;
      }
    </style>
  </defs>
  <path class="cls-1" d="M122.91,31.34l13.66-4.61C171.83,16.19,208.16,9.73,243.64,0h1.35s206.35,122.83,206.35,122.83l-17.38,89.7-.67-.39-10.65-24.98c-8.84,9.49-18.18,18.54-28.25,26.73-4.85-1.39-9.21-2.11-14.25-1.28-10.6,1.74-19.18,9.62-22.59,19.69-.78,2.32-1.01,5.48-1.8,7.56-.18.47-.26.87-.9.76l6.22-38.66c-.4-2.3-1.78-3.51-4.04-3.84s-9.96-.34-11.92.3c-.46.15-1.31.6-1.64.93-1.9,1.9-2.27,11.4-3.14,14.53-.09.33-.1.56-.44.76-8.61-5.27-20.7-1.25-27.02,5.9-7.64,8.66-11.14,24.66-6.41,35.38.21.48,1.5,2.25,1.26,2.51l-7.25,1.21c3.53-9.27-4.68-17.34-13.98-13.52-3.35,1.37-5.75,5.09-6.18,8.62-.31,2.56.64,5.07,1.73,7.32-19.83.76-39.47-2-58.06-8.83-47.18-17.33-81.85-57.94-104.11-101.69.22-.21,2.13,1.4,2.42,1.65,8.91,7.79,16.82,16.86,25.66,24.77,33.29,29.8,93.77,48.61,138.13,43.6,16.37-1.85,28.09-7.37,41.48-16.5,16.2-11.05,30.38-24.74,44.47-38.27l-26.61-8.75c-20.37,13.76-44.04,22.79-68.6,25.46-11.58-7.85-22.54-16.67-33.28-25.62-7.68-6.4-15.87-13.22-23.11-20.07-2.49-2.36-5.22-4.99-7.24-7.71h62.51l-155.52-60.4c7.17,48.09,32.29,93.42,70.36,123.67-2.15-.02-4.65-.99-6.72-1.74-10.8-3.93-20.99-11.23-29.66-18.66-18.87-16.16-34.66-36.63-57.23-48.01,0-.63,1.19-.24,1.51-.15,4.39,1.25,9.31,4.54,13.81,6.12.3.1,2.6,1.16,2.19.23-17.31-23.25-29.16-50.32-36.61-78.3L0,22.58l395.47,91.81c1.42.13-1.6-1.18-1.77-1.26-59.14-27.82-119.08-53.97-178.23-81.79h-92.56Z"/>
  <path class="cls-1" d="M356.95,202.57l-9.66,58.89h-10.57l1.21-6.94c-.39-.44-2.39,2.56-2.71,2.88-7.04,7.18-20.07,6.79-24.83-2.67-5.09-10.12-.14-27.73,9.01-34.28,5.59-4,15.88-6.06,20.79-.06,1.06,1.29,1.52,2.98,2.56,4.24l3.63-22.05h10.57ZM331.22,225.31c-13.68,1.17-17.72,32.11-.71,27.98,11.21-2.72,16-29.29.71-27.98Z"/>
  <path class="cls-1" d="M370.39,242.13c-1.56,2.79-.61,7.85,1.82,9.96,3.75,3.25,11.88,2.52,15.39-.9.72-.7,1.52-2.61,2.43-2.72,2.71.58,5.76.48,8.44.91.36.06.54.16.75.45-4.17,9.19-13.95,13.26-23.7,12.53-26.39-1.98-17.34-43.93,6.63-45.61,13.99-.98,21.12,6.82,19.45,20.66-.18,1.49-.38,3.48-1.02,4.72h-30.2ZM371.45,235.19h20.08c1.21-2.35.11-6.32-1.8-8.17-6.01-5.83-17.43.7-18.28,8.17Z"/>
  <path class="cls-1" d="M419.32,217.07l5.43,32.92,16.01-32.92h11.02l-.24,1.12c-7.33,12.99-13.54,26.61-20.75,39.65-.6,1.09-1.59,3.5-2.71,3.63-3.38.41-7.57-.34-11.04-.02l-8.16-44.39h10.42Z"/>
  <path class="cls-1" d="M290.76,249.45c7.94-.57,8.42,11.1,1.35,12.54-9.44,1.93-10.32-11.9-1.35-12.54Z"/>
  <path class="cls-1" d="M331.52,229.22c8.36-1.04,4.93,13.12,1.88,16.99-2.39,3.03-8.09,5.03-9.58.22-1.6-5.18,1.3-16.4,7.7-17.2Z"/>
</svg>